<?xml version="1.0" encoding="utf-8"?>
<!-- Generator: Adobe Illustrator 22.0.1, SVG Export Plug-In . SVG Version: 6.00 Build 0)  -->
<svg version="1.1" id="Layer_1" xmlns="http://www.w3.org/2000/svg" xmlns:xlink="http://www.w3.org/1999/xlink" x="0px" y="0px"
	 viewBox="0 0 549.7 771.9" style="enable-background:new 0 0 549.7 771.9;" xml:space="preserve">
<style type="text/css">
	.st0{fill:#383838;}
	.st1{fill:#2B2A28;}
	.st2{fill:#191816;}
	.st3{fill:#A7FF9B;}
	.st4{fill:#9BF5FC;}
	.st5{fill:#FFFFFF;}
</style>
<title>Artboard 1 copy 2</title>
<polygon class="st0" points="21.6,428.3 274.6,494.3 530.6,426.3 278.6,360.3 "/>
<polygon class="st1" points="22.6,524.3 21.6,428.3 274.6,494.3 274.6,590.3 "/>
<polygon class="st2" points="531.6,521.3 530.6,426.3 274.6,494.3 274.6,590.3 "/>
<polygon class="st0" points="28.7,437.3 47.3,441.9 47.3,525.8 28.7,521.2 "/>
<polygon class="st0" points="55.3,443.9 73.9,448.6 73.9,532.5 55.3,527.8 "/>
<polygon class="st0" points="81.9,450.6 100.4,455.2 100.4,539.1 81.9,534.4 "/>
<polygon class="st0" points="106.9,458.3 125.5,462.9 125.5,546.8 106.9,542.2 "/>
<polygon class="st0" points="133.5,464.9 152,469.5 152,553.4 133.5,548.8 "/>
<polygon class="st0" points="160,471.5 178.6,476.1 178.6,560 160,555.4 "/>
<ellipse transform="matrix(0.9902 -0.14 0.14 0.9902 -68.2935 36.9802)" class="st3" cx="228.7" cy="503.9" rx="6" ry="8.5"/>
<path class="st4" d="M252.5,517.8c-3.3-0.5-6-4.7-5.9-9.4s2.8-8,6.1-7.4c3.3,0.6,6,4.7,5.9,9.4C258.6,514.9,255.8,518.3,252.5,517.8
	z"/>
<polygon class="st0" points="21.6,301.9 274.6,367.9 530.6,299.9 278.6,233.9 "/>
<polygon class="st1" points="22.6,397.9 21.6,301.9 274.6,367.9 274.6,463.9 "/>
<polygon class="st2" points="531.6,394.9 530.6,299.9 274.6,367.9 274.6,463.9 "/>
<polygon class="st0" points="28.7,310.9 47.3,315.5 47.3,399.4 28.7,394.8 "/>
<polygon class="st0" points="55.3,317.5 73.9,322.1 73.9,406 55.3,401.4 "/>
<polygon class="st0" points="81.9,324.1 100.4,328.8 100.4,412.6 81.9,408 "/>
<polygon class="st0" points="106.9,331.9 125.5,336.5 125.5,420.4 106.9,415.7 "/>
<polygon class="st0" points="133.5,338.5 152,343.1 152,427 133.5,422.4 "/>
<polygon class="st0" points="160,345.1 178.6,349.7 178.6,433.6 160,429 "/>
<ellipse transform="matrix(0.9902 -0.1393 0.1393 0.9902 -50.3885 35.4963)" class="st3" cx="228.4" cy="377.7" rx="6" ry="8.5"/>
<ellipse transform="matrix(0.9902 -0.1393 0.1393 0.9902 -50.8768 38.9174)" class="st4" cx="252.6" cy="382.9" rx="6" ry="8.5"/>
<path class="st2" d="M26.7,137.1h229c1.3,0,2.6,0.5,3.5,1.5l13.3,13.3c2,2,5.1,2,7.1,0l0,0l13.3-13.3c0.9-0.9,2.2-1.5,3.5-1.5h229
	c13.4,0,24.2-10.9,24.2-24.2V24.2c0-13.4-10.8-24.2-24.2-24.2H26.7C13.3,0,2.4,10.9,2.4,24.2v88.6C2.4,126.2,13.3,137.1,26.7,137.1z
	"/>
<path class="st2" d="M24,667h499.7c13.3,0,24,10.7,24,24v55.9c0,13.3-10.7,24-24,24H24c-13.3,0-24-10.7-24-24V691
	C0,677.7,10.7,667,24,667z"/>
<polygon class="st5" points="203.9,268.4 345.3,311.9 382.7,302.6 409,310.7 302.5,337.2 276.2,329.1 314.4,319.6 209.7,287.4 
	200.9,303 166.8,300.9 182,273.8 "/>
<g>
	<path class="st5" d="M42.7,78.7v16.5H34v-45h15.4c2.4,0,4.7,0.4,6.6,1.1s3.7,1.7,5,3c1.4,1.3,2.5,2.8,3.2,4.6
		c0.8,1.8,1.1,3.7,1.1,5.9c0,2-0.4,3.9-1.1,5.6c-0.8,1.7-1.8,3.2-3.2,4.4c-1.4,1.2-3.1,2.2-5,2.9s-4.2,1-6.6,1H42.7z M42.7,71.6h6.7
		c1.2,0,2.3-0.2,3.2-0.6s1.7-0.9,2.3-1.5s1.1-1.4,1.4-2.2c0.3-0.8,0.4-1.7,0.4-2.6c0-1-0.1-2-0.4-2.9c-0.3-0.9-0.8-1.7-1.4-2.4
		c-0.6-0.7-1.4-1.2-2.3-1.6c-0.9-0.4-2-0.6-3.2-0.6h-6.7V71.6z"/>
	<path class="st5" d="M86.7,78.4h-6.6v16.8h-8.7v-45h15.1c2.5,0,4.7,0.3,6.8,0.9c2,0.6,3.7,1.4,5.2,2.6c1.4,1.1,2.5,2.5,3.3,4.2
		s1.2,3.6,1.2,5.9c0,1.6-0.2,3.1-0.6,4.3c-0.4,1.3-0.9,2.4-1.6,3.5c-0.7,1-1.6,1.9-2.6,2.7c-1,0.8-2.1,1.4-3.3,2l9.7,18.6v0.4h-9.3
		L86.7,78.4z M80.1,71.3h6.4c2.4,0,4.3-0.6,5.7-1.9c1.3-1.2,2-2.9,2-5.1c0-2.2-0.6-4-1.9-5.2s-3.2-1.9-5.7-1.9h-6.4L80.1,71.3
		L80.1,71.3z"/>
	<path class="st5" d="M111.3,50.2h26v7h-8.8v31h8.8v7h-26v-7h8.6v-31h-8.6V50.2z"/>
	<path class="st5" d="M162.2,82.6l8.5-32.4h9.6l-13.6,44.9h-8.8l-13.6-44.9h9.6L162.2,82.6z"/>
	<path class="st5" d="M207.3,85.8h-13.5l-2.7,9.4H182l14.7-44.9h7.9L219,95.2h-9L207.3,85.8z M196,78.4h9.3l-4.6-16.5L196,78.4z"/>
	<path class="st5" d="M256.2,57.3h-13.9v37.9h-8.7V57.3H220v-7.1h36.2V57.3z"/>
	<path class="st5" d="M288.8,75.5h-18.5v12.7h21.6v7h-30.3v-45h30.2v7.1h-21.5v11.3h18.5L288.8,75.5L288.8,75.5z"/>
	<path class="st5" d="M368.2,81.1c-0.1,2.3-0.6,4.3-1.5,6.1c-0.8,1.8-2,3.4-3.3,4.6c-1.4,1.3-3.1,2.3-5,2.9s-4.1,1-6.4,1
		c-2.7,0-5-0.5-7.1-1.5s-3.8-2.3-5.2-4.1c-1.4-1.8-2.5-3.9-3.2-6.3c-0.7-2.5-1.1-5.2-1.1-8.1v-6.1c0-3,0.4-5.7,1.2-8.2
		c0.8-2.5,1.9-4.6,3.3-6.4c1.4-1.8,3.2-3.1,5.2-4.1s4.3-1.5,6.9-1.5c2.5,0,4.7,0.3,6.6,1s3.6,1.7,4.9,3c1.4,1.3,2.4,2.9,3.2,4.8
		c0.8,1.9,1.3,4,1.5,6.3h-8.6c-0.1-1.3-0.3-2.5-0.6-3.5c-0.3-1-0.8-1.8-1.4-2.5s-1.4-1.2-2.3-1.5s-2-0.5-3.3-0.5s-2.5,0.3-3.5,0.9
		c-1,0.6-1.8,1.4-2.5,2.5s-1.1,2.5-1.4,4.1s-0.5,3.5-0.5,5.5v6.1c0,4.4,0.6,7.7,1.9,9.8c1.2,2.1,3.2,3.2,5.9,3.2
		c2.3,0,4.1-0.6,5.4-1.8c1.3-1.2,2-3.2,2.2-5.8h8.7V81.1z"/>
	<path class="st5" d="M384.2,88.1h21.1v7h-29.8V50.2h8.7L384.2,88.1L384.2,88.1z"/>
	<path class="st5" d="M444.2,76c0,2.9-0.4,5.5-1.1,8c-0.8,2.4-1.9,4.5-3.3,6.3s-3.2,3.1-5.3,4.1c-2.1,1-4.4,1.5-7,1.5
		s-4.9-0.5-6.9-1.5s-3.7-2.3-5.1-4.1c-1.4-1.8-2.4-3.8-3.1-6.3s-1.1-5.1-1.1-7.9v-6.5c0-2.9,0.4-5.5,1.1-8c0.7-2.4,1.8-4.5,3.1-6.3
		c1.4-1.8,3.1-3.1,5.1-4.1s4.3-1.5,6.9-1.5s5,0.5,7,1.5c2.1,1,3.8,2.4,5.3,4.1c1.4,1.8,2.5,3.9,3.3,6.3c0.8,2.4,1.1,5.1,1.1,8V76z
		 M435.4,69.4c0-1.8-0.2-3.5-0.4-5.1c-0.3-1.5-0.8-2.9-1.4-4s-1.5-2-2.5-2.6s-2.2-0.9-3.6-0.9s-2.6,0.3-3.5,0.9
		c-0.9,0.6-1.7,1.5-2.3,2.6s-1,2.4-1.2,4c-0.2,1.5-0.4,3.2-0.4,5.1V76c0,1.8,0.1,3.5,0.4,5c0.2,1.5,0.7,2.9,1.2,4s1.3,2,2.3,2.7
		c0.9,0.6,2.1,1,3.5,1s2.6-0.3,3.6-1c1-0.6,1.8-1.5,2.4-2.6s1.1-2.5,1.4-4s0.5-3.2,0.5-5.1V69.4z"/>
	<path class="st5" d="M480.7,50.2V80c0,2.5-0.3,4.7-1,6.7s-1.7,3.6-3,5c-1.3,1.3-2.9,2.4-4.8,3.1s-4,1-6.4,1c-2.3,0-4.3-0.3-6.1-1
		c-1.8-0.7-3.4-1.7-4.7-3.1c-1.3-1.3-2.3-3-3-5s-1.1-4.2-1.1-6.7V50.2h8.7V80c0,2.9,0.6,5.1,1.6,6.6s2.6,2.2,4.6,2.2
		c2.1,0,3.7-0.7,4.9-2.2c1.1-1.5,1.7-3.7,1.7-6.6V50.2H480.7z"/>
	<path class="st5" d="M488.6,95.1V50.2h11.6c3,0,5.7,0.5,8.1,1.5s4.5,2.4,6.2,4.3c1.7,1.8,3,4,4,6.5c0.9,2.5,1.4,5.3,1.4,8.3v3.7
		c0,3-0.5,5.8-1.4,8.3s-2.2,4.7-3.9,6.5s-3.7,3.2-6.1,4.2s-5,1.5-7.8,1.5L488.6,95.1L488.6,95.1z M497.3,57.2v30.9h3.3
		c1.6,0,3.1-0.3,4.4-0.9s2.4-1.5,3.3-2.7s1.6-2.6,2.1-4.3c0.5-1.7,0.7-3.6,0.7-5.7v-3.8c0-2-0.2-3.9-0.7-5.5s-1.2-3.1-2.1-4.3
		s-2-2.1-3.4-2.8c-1.3-0.7-2.9-1-4.7-1h-2.9V57.2z"/>
</g>
</svg>
