<?xml version="1.0" encoding="utf-8"?>
<!-- Generator: Adobe Illustrator 22.0.1, SVG Export Plug-In . SVG Version: 6.00 Build 0)  -->
<svg version="1.1" id="Layer_1" xmlns="http://www.w3.org/2000/svg" xmlns:xlink="http://www.w3.org/1999/xlink" x="0px" y="0px"
	 viewBox="0 0 549.7 771.9" style="enable-background:new 0 0 549.7 771.9;" xml:space="preserve">
<style type="text/css">
	.st0{fill:#383838;}
	.st1{fill:#2B2A28;}
	.st2{fill:#191816;}
	.st3{fill:#A7FF9B;}
	.st4{fill:#9BF5FC;}
	.st5{fill:#FFFFFF;}
</style>
<polygon class="st0" points="21.6,428.3 274.6,494.3 530.6,426.3 278.6,360.3 "/>
<polygon class="st1" points="22.6,524.3 21.6,428.3 274.6,494.3 274.6,590.3 "/>
<polygon class="st2" points="531.6,521.3 530.6,426.3 274.6,494.3 274.6,590.3 "/>
<polygon class="st0" points="28.7,437.3 47.3,441.9 47.3,525.8 28.7,521.2 "/>
<polygon class="st0" points="55.3,443.9 73.9,448.6 73.9,532.4 55.3,527.8 "/>
<polygon class="st0" points="81.9,450.6 100.4,455.2 100.4,539.1 81.9,534.4 "/>
<polygon class="st0" points="106.9,458.3 125.5,462.9 125.5,546.8 106.9,542.2 "/>
<polygon class="st0" points="133.5,464.9 152,469.5 152,553.4 133.5,548.8 "/>
<polygon class="st0" points="160,471.5 178.6,476.1 178.6,560 160,555.4 "/>
<g>
	<g>
		<g>
			
				<ellipse transform="matrix(0.9902 -0.1394 0.1394 0.9902 -68.0417 36.7606)" class="st3" cx="228.4" cy="504.1" rx="6" ry="8.5"/>
		</g>
	</g>
</g>
<g>
	<g>
		<g>
			<path class="st4" d="M252.5,517.7c-3.3-0.5-6-4.7-5.9-9.4c0-4.6,2.8-8,6.1-7.4c3.3,0.5,6,4.7,5.9,9.4S255.8,518.3,252.5,517.7z"
				/>
		</g>
	</g>
</g>
<polygon class="st0" points="21.6,301.9 274.6,367.9 530.6,299.9 278.6,233.9 "/>
<polygon class="st1" points="22.6,397.9 21.6,301.9 274.6,367.9 274.6,463.9 "/>
<polygon class="st2" points="531.6,394.9 530.6,299.9 274.6,367.9 274.6,463.9 "/>
<g>
	<g>
		<g>
			<path class="st5" d="M242.9,259.3l22.9,7.1l4.5,27.1l6-1.5c6.1-1.5,13.1-2.7,20.9-3.5s15.9-1.2,24.4-1c8.5,0.1,17.1,0.8,25.9,2
				s17.1,3,25,5.4c9.6,3,15.9,6.1,19,9.3c3.1,3.3,3.8,6.5,2,9.7s-5.8,6.3-12.1,9.2c-6.3,2.9-14.1,5.6-23.4,7.9
				c-7.9,2-16.4,3.7-25.6,5.3c-9.2,1.5-18.9,2.8-29.1,3.8l-18-10.7c2.4-0.1,5.4-0.4,9-0.8s7.5-0.9,11.7-1.5s8.4-1.3,12.5-2
				s7.9-1.5,11.4-2.4c5.8-1.4,10.4-3,13.7-4.6c3.4-1.6,5.5-3.3,6.3-4.9s0.5-3.2-1-4.8c-1.5-1.5-4.3-2.9-8.3-4.2
				c-5-1.5-10.3-2.6-16-3.1c-5.6-0.5-11.4-0.6-17.2-0.3c-5.9,0.3-11.9,1.1-18.2,2.2c-6.3,1.1-12.6,2.4-18.9,4l-14.7,3.7l-18.1-5.6
				l-7.7-26.9l-66.4,16.6l-27.7-8.5L242.9,259.3z"/>
		</g>
	</g>
</g>
<polygon class="st0" points="28.7,310.9 47.3,315.5 47.3,399.4 28.7,394.8 "/>
<polygon class="st0" points="55.3,317.5 73.9,322.1 73.9,406 55.3,401.4 "/>
<polygon class="st0" points="81.9,324.1 100.4,328.8 100.4,412.6 81.9,408 "/>
<polygon class="st0" points="106.9,331.9 125.5,336.5 125.5,420.4 106.9,415.7 "/>
<polygon class="st0" points="133.5,338.5 152,343.1 152,427 133.5,422.4 "/>
<polygon class="st0" points="160,345.1 178.6,349.7 178.6,433.6 160,429 "/>
<g>
	<g>
		<g>
			
				<ellipse transform="matrix(0.9902 -0.1394 0.1394 0.9902 -50.4215 35.5268)" class="st3" cx="228.4" cy="377.7" rx="6" ry="8.5"/>
		</g>
	</g>
</g>
<g>
	<g>
		<g>
			
				<ellipse transform="matrix(0.9902 -0.1394 0.1394 0.9902 -50.9098 38.9506)" class="st4" cx="252.6" cy="382.9" rx="6" ry="8.5"/>
		</g>
	</g>
</g>
<path class="st2" d="M26.7,137.1h229c1.3,0,2.6,0.5,3.5,1.5l13.3,13.3c2,2,5.1,2,7.1,0l13.3-13.3c0.9-0.9,2.2-1.5,3.5-1.5h229
	c13.4,0,24.2-10.9,24.2-24.2V24.2c0-13.4-10.9-24.2-24.2-24.2H26.7C13.3,0,2.4,10.9,2.4,24.2v88.6C2.4,126.2,13.3,137.1,26.7,137.1z
	"/>
<path class="st2" d="M523.7,770.9H24c-13.2,0-24-10.8-24-24V691c0-13.2,10.8-24,24-24h499.7c13.2,0,24,10.8,24,24v55.9
	C547.7,760.1,536.9,770.9,523.7,770.9z"/>
<g>
	<path class="st5" d="M74.5,77.8H61l-2.7,9.4h-9.1L64,42.2h7.9l14.4,44.9h-9.1L74.5,77.8z M63.2,70.4h9.3l-4.6-16.5L63.2,70.4z"/>
	<path class="st5" d="M101,42.2l4.3,16.9l4.8-16.9h10.8v44.9h-8V73.9l0.4-21l-5.9,19.5h-4.3l-5.3-18.7l0.4,20.2v13.3h-8V42.2H101z"
		/>
	<path class="st5" d="M150.4,77.8h-13.5l-2.7,9.4h-9.1l14.7-44.9h7.9l14.4,44.9H153L150.4,77.8z M139,70.4h9.3l-4.6-16.5L139,70.4z"
		/>
	<path class="st5" d="M175.5,80.1h22.3v7h-32.8v-5.3l21.8-32.6H165v-7.1h32.2l0,5.2L175.5,80.1z"/>
	<path class="st5" d="M235.5,68c0,2.9-0.4,5.5-1.1,8c-0.8,2.4-1.9,4.5-3.3,6.3c-1.4,1.8-3.2,3.1-5.3,4.1c-2.1,1-4.4,1.5-7,1.5
		c-2.6,0-4.9-0.5-6.9-1.5c-2-1-3.7-2.3-5.1-4.1c-1.4-1.8-2.4-3.8-3.1-6.3c-0.7-2.4-1.1-5.1-1.1-7.9v-6.5c0-2.9,0.4-5.5,1.1-8
		c0.7-2.4,1.8-4.5,3.1-6.3c1.4-1.8,3.1-3.1,5.1-4.1c2-1,4.3-1.5,6.9-1.5c2.6,0,5,0.5,7,1.5c2.1,1,3.8,2.4,5.3,4.1
		c1.4,1.8,2.5,3.9,3.3,6.3c0.8,2.4,1.1,5.1,1.1,8V68z M226.7,61.4c0-1.8-0.1-3.5-0.4-5.1c-0.3-1.5-0.8-2.9-1.4-4
		c-0.6-1.1-1.5-2-2.5-2.6c-1-0.6-2.2-0.9-3.6-0.9c-1.4,0-2.6,0.3-3.5,0.9c-0.9,0.6-1.7,1.5-2.3,2.6s-1,2.4-1.2,4
		c-0.2,1.5-0.4,3.2-0.4,5.1V68c0,1.8,0.1,3.5,0.4,5c0.2,1.5,0.7,2.9,1.2,4s1.3,2,2.3,2.7c0.9,0.6,2.1,1,3.5,1c1.4,0,2.6-0.3,3.6-1
		c1-0.6,1.8-1.5,2.4-2.6c0.6-1.1,1.1-2.5,1.4-4c0.3-1.5,0.5-3.2,0.5-5.1V61.4z"/>
	<path class="st5" d="M271.7,87.2h-8.6l-12.5-29v29h-8.7V42.2h8.7L263,71.1l0-28.9h8.7V87.2z"/>
	<path class="st5" d="M349.2,73.1c-0.1,2.3-0.6,4.3-1.5,6.1c-0.8,1.8-2,3.4-3.3,4.6c-1.4,1.3-3.1,2.3-5,2.9s-4.1,1-6.4,1
		c-2.7,0-5-0.5-7.1-1.5c-2.1-1-3.8-2.3-5.2-4.1c-1.4-1.8-2.5-3.9-3.2-6.3c-0.7-2.5-1.1-5.2-1.1-8.1v-6.1c0-3,0.4-5.7,1.2-8.2
		c0.8-2.5,1.9-4.6,3.3-6.4c1.4-1.8,3.2-3.1,5.2-4.1s4.3-1.5,6.9-1.5c2.5,0,4.7,0.3,6.6,1c1.9,0.7,3.6,1.7,4.9,3
		c1.4,1.3,2.4,2.9,3.2,4.8c0.8,1.9,1.3,4,1.5,6.3h-8.6c-0.1-1.3-0.3-2.5-0.6-3.5c-0.3-1-0.8-1.8-1.4-2.5s-1.4-1.2-2.3-1.5
		c-0.9-0.3-2-0.5-3.3-0.5c-1.3,0-2.5,0.3-3.5,0.9c-1,0.6-1.8,1.4-2.5,2.5s-1.1,2.5-1.4,4.1c-0.3,1.6-0.5,3.5-0.5,5.5v6.1
		c0,4.4,0.6,7.7,1.9,9.8c1.2,2.1,3.2,3.2,5.9,3.2c2.3,0,4.1-0.6,5.4-1.8c1.3-1.2,2-3.2,2.2-5.8H349.2z"/>
	<path class="st5" d="M365.2,80.1h21.1v7h-29.8V42.2h8.7V80.1z"/>
	<path class="st5" d="M425.2,68c0,2.9-0.4,5.5-1.1,8c-0.8,2.4-1.9,4.5-3.3,6.3c-1.4,1.8-3.2,3.1-5.3,4.1c-2.1,1-4.4,1.5-7,1.5
		c-2.6,0-4.9-0.5-6.9-1.5c-2-1-3.7-2.3-5.1-4.1c-1.4-1.8-2.4-3.8-3.1-6.3s-1.1-5.1-1.1-7.9v-6.5c0-2.9,0.4-5.5,1.1-8
		c0.7-2.4,1.8-4.5,3.1-6.3c1.4-1.8,3.1-3.1,5.1-4.1c2-1,4.3-1.5,6.9-1.5c2.6,0,5,0.5,7,1.5c2.1,1,3.8,2.4,5.3,4.1
		c1.4,1.8,2.5,3.9,3.3,6.3c0.8,2.4,1.1,5.1,1.1,8V68z M416.4,61.4c0-1.8-0.2-3.5-0.4-5.1c-0.3-1.5-0.8-2.9-1.4-4s-1.5-2-2.5-2.6
		c-1-0.6-2.2-0.9-3.6-0.9c-1.4,0-2.6,0.3-3.5,0.9c-0.9,0.6-1.7,1.5-2.3,2.6s-1,2.4-1.2,4c-0.2,1.5-0.4,3.2-0.4,5.1V68
		c0,1.8,0.1,3.5,0.4,5c0.2,1.5,0.7,2.9,1.2,4s1.3,2,2.3,2.7c0.9,0.6,2.1,1,3.5,1c1.4,0,2.6-0.3,3.6-1c1-0.6,1.8-1.5,2.4-2.6
		c0.6-1.1,1.1-2.5,1.4-4c0.3-1.5,0.5-3.2,0.5-5.1V61.4z"/>
	<path class="st5" d="M461.7,42.2l0,29.8c0,2.5-0.3,4.7-1,6.7s-1.7,3.6-3,5c-1.3,1.3-2.9,2.4-4.8,3.1c-1.9,0.7-4,1-6.4,1
		c-2.3,0-4.3-0.3-6.1-1c-1.8-0.7-3.4-1.7-4.7-3.1c-1.3-1.3-2.3-3-3-5s-1.1-4.2-1.1-6.7l0-29.8h8.7l0,29.8c0,2.9,0.6,5.1,1.6,6.6
		c1,1.5,2.6,2.2,4.6,2.2c2.1,0,3.7-0.7,4.9-2.2c1.1-1.5,1.7-3.7,1.7-6.6l0-29.8H461.7z"/>
	<path class="st5" d="M469.5,87.2V42.2h11.6c3,0,5.7,0.5,8.1,1.5c2.4,1,4.5,2.4,6.2,4.3c1.7,1.8,3,4,4,6.5c0.9,2.5,1.4,5.3,1.4,8.3
		v3.7c0,3-0.5,5.8-1.4,8.3c-0.9,2.5-2.2,4.7-3.9,6.5c-1.7,1.8-3.7,3.2-6.1,4.2c-2.4,1-5,1.5-7.8,1.5H469.5z M478.3,49.2v30.9h3.3
		c1.6,0,3.1-0.3,4.4-0.9s2.4-1.5,3.3-2.7s1.6-2.6,2.1-4.3c0.5-1.7,0.7-3.6,0.7-5.7v-3.8c0-2-0.2-3.9-0.7-5.5s-1.2-3.1-2.1-4.3
		c-0.9-1.2-2-2.1-3.4-2.8c-1.3-0.7-2.9-1-4.7-1H478.3z"/>
</g>
</svg>
