<?xml version="1.0" encoding="UTF-8" standalone="no"?>
<svg
   xmlns:dc="http://purl.org/dc/elements/1.1/"
   xmlns:cc="http://creativecommons.org/ns#"
   xmlns:rdf="http://www.w3.org/1999/02/22-rdf-syntax-ns#"
   xmlns:svg="http://www.w3.org/2000/svg"
   xmlns="http://www.w3.org/2000/svg"
   xmlns:xlink="http://www.w3.org/1999/xlink"
   xmlns:sodipodi="http://sodipodi.sourceforge.net/DTD/sodipodi-0.dtd"
   xmlns:inkscape="http://www.inkscape.org/namespaces/inkscape"
   id="Layer_1"
   data-name="Layer 1"
   width="549.7"
   height="771.9"
   viewBox="0 0 549.7 771.9"
   version="1.1"
   sodipodi:docname="datacenter-2.svg">
  <metadata
     id="metadata1660">
    <rdf:RDF>
      <cc:Work
         rdf:about="">
        <dc:format>image/svg+xml</dc:format>
        <dc:type
           rdf:resource="http://purl.org/dc/dcmitype/StillImage" />
      </cc:Work>
    </rdf:RDF>
  </metadata>
  <sodipodi:namedview
     pagecolor="#ffffff"
     bordercolor="#666666"
     borderopacity="1"
     objecttolerance="10"
     gridtolerance="10"
     guidetolerance="10"
     inkscape:pageopacity="0"
     inkscape:pageshadow="2"
     inkscape:window-width="640"
     inkscape:window-height="480"
     id="namedview1658"
     showgrid="false" />
  <defs
     id="defs1581">
    <style
       id="style1579">.cls-1{fill:#383838;}.cls-2{fill:#2b2a28;}.cls-3{fill:#191816;}.cls-4{fill:#a7ff9b;}.cls-5{fill:#9bf5fc;}.cls-6{fill:#fff;}</style>
    <linearGradient
       inkscape:collect="always"
       xlink:href="#linearGradient1024"
       id="linearGradient1026"
       x1="0"
       y1="718.91498"
       x2="547.69"
       y2="718.91498"
       gradientUnits="userSpaceOnUse"
       gradientTransform="matrix(0.96231994,0,0,0.81542598,10.808713,134.16356)" />
    <linearGradient
       inkscape:collect="always"
       id="linearGradient1024">
      <stop
         style="stop-color:#00ffbb;stop-opacity:1;"
         offset="0"
         id="stop1020" />
      <stop
         id="stop1028"
         offset="0.85321051"
         style="stop-color:#ffc306;stop-opacity:1" />
      <stop
         style="stop-color:#ff4d00;stop-opacity:1"
         offset="1"
         id="stop1022" />
    </linearGradient>
  </defs>
  <title
     id="title1583">Artboard 1 copy</title>
  <polygon
     class="cls-1"
     points="21.56 428.3 274.56 494.3 530.56 426.3 278.56 360.3 21.56 428.3"
     id="polygon1585" />
  <polygon
     class="cls-2"
     points="22.56 524.3 21.56 428.3 274.56 494.3 274.56 590.3 22.56 524.3"
     id="polygon1587" />
  <polygon
     class="cls-3"
     points="531.56 521.3 530.56 426.3 274.56 494.3 274.56 590.3 531.56 521.3"
     id="polygon1589" />
  <polygon
     class="cls-1"
     points="28.73 437.31 47.3 441.94 47.3 525.83 28.73 521.2 28.73 437.31"
     id="polygon1591" />
  <polygon
     class="cls-1"
     points="55.3 443.94 73.86 448.57 73.86 532.45 55.3 527.82 55.3 443.94"
     id="polygon1593" />
  <polygon
     class="cls-1"
     points="81.86 450.56 100.42 455.19 100.42 539.07 81.86 534.44 81.86 450.56"
     id="polygon1595" />
  <polygon
     class="cls-1"
     points="106.91 458.27 125.47 462.9 125.47 546.79 106.91 542.16 106.91 458.27"
     id="polygon1597" />
  <polygon
     class="cls-1"
     points="133.47 464.9 152.03 469.52 152.03 553.41 133.47 548.78 133.47 464.9"
     id="polygon1599" />
  <polygon
     class="cls-1"
     points="160.03 471.52 178.6 476.15 178.6 560.03 160.03 555.4 160.03 471.52"
     id="polygon1601" />
  <ellipse
     class="cls-4"
     cx="228.41"
     cy="504.12"
     rx="5.98"
     ry="8.5"
     transform="matrix(0.99, -0.14, 0.14, 0.99, -68.05, 36.76)"
     id="ellipse1603" />
  <path
     class="cls-5"
     d="M252.5,517.75c-3.33-.53-6-4.72-5.94-9.36s2.78-8,6.12-7.44,6,4.72,5.94,9.35S255.84,518.28,252.5,517.75Z"
     id="path1605" />
  <polygon
     class="cls-1"
     points="21.56 301.87 274.56 367.87 530.56 299.87 278.56 233.87 21.56 301.87"
     id="polygon1607" />
  <polygon
     class="cls-2"
     points="22.56 397.87 21.56 301.87 274.56 367.87 274.56 463.87 22.56 397.87"
     id="polygon1609" />
  <polygon
     class="cls-3"
     points="531.56 394.87 530.56 299.87 274.56 367.87 274.56 463.87 531.56 394.87"
     id="polygon1611" />
  <polygon
     class="cls-1"
     points="28.73 310.89 47.3 315.52 47.3 399.4 28.73 394.78 28.73 310.89"
     id="polygon1613" />
  <polygon
     class="cls-1"
     points="55.3 317.51 73.86 322.14 73.86 406.03 55.3 401.4 55.3 317.51"
     id="polygon1615" />
  <polygon
     class="cls-1"
     points="81.86 324.14 100.42 328.77 100.42 412.65 81.86 408.02 81.86 324.14"
     id="polygon1617" />
  <polygon
     class="cls-1"
     points="106.91 331.85 125.47 336.48 125.47 420.36 106.91 415.74 106.91 331.85"
     id="polygon1619" />
  <polygon
     class="cls-1"
     points="133.47 338.48 152.03 343.1 152.03 426.99 133.47 422.36 133.47 338.48"
     id="polygon1621" />
  <polygon
     class="cls-1"
     points="160.03 345.1 178.6 349.73 178.6 433.61 160.03 428.98 160.03 345.1"
     id="polygon1623" />
  <ellipse
     class="cls-4"
     cx="228.41"
     cy="377.7"
     rx="5.98"
     ry="8.5"
     transform="translate(-50.42 35.53) rotate(-8.01)"
     id="ellipse1625" />
  <ellipse
     class="cls-5"
     cx="252.59"
     cy="382.93"
     rx="5.98"
     ry="8.5"
     transform="translate(-50.91 38.95) rotate(-8.01)"
     id="ellipse1627" />
  <path
     class="cls-3"
     d="M26.66,137.1h229a5,5,0,0,1,3.53,1.46l13.31,13.31a5,5,0,0,0,7.08,0l13.31-13.31a5,5,0,0,1,3.53-1.46h229a24.25,24.25,0,0,0,24.24-24.25V24.25A24.25,24.25,0,0,0,525.46,0H26.66A24.25,24.25,0,0,0,2.42,24.25v88.6A24.25,24.25,0,0,0,26.66,137.1Z"
     id="path1629" />
  <path
     class="cls-6"
     d="M38.57,44.44c1-.15,2.16-.27,3.44-.36s2.6-.17,4-.22,2.67-.09,3.95-.11,2.42,0,3.44,0A31.28,31.28,0,0,1,64.86,45.6a19.5,19.5,0,0,1,7.75,5.28A21.27,21.27,0,0,1,77,59a36.66,36.66,0,0,1,1.38,10.35A37.57,37.57,0,0,1,77,79.28a22.59,22.59,0,0,1-4.34,8.47,21.88,21.88,0,0,1-8,5.94,29.86,29.86,0,0,1-12.27,2.24c-.78,0-1.8,0-3.08-.07l-4-.18-3.94-.22c-1.26-.07-2.2-.15-2.83-.25Zm15.57,8.11c-1.06,0-2.13,0-3.22.07a19.23,19.23,0,0,0-2.42.22v34a6.06,6.06,0,0,0,1,.11L51,87l1.52.07c.48,0,.84,0,1.09,0a14.72,14.72,0,0,0,7-1.49,11.76,11.76,0,0,0,4.42-4A15.7,15.7,0,0,0,67.25,76a33,33,0,0,0,.66-6.63,31.94,31.94,0,0,0-.58-6A15,15,0,0,0,65.19,58,12,12,0,0,0,61,54.07,13.68,13.68,0,0,0,54.14,52.55Z"
     id="path1631" />
  <path
     class="cls-6"
     d="M108.39,83.91H92.82L89,95.14H79.06L97.31,44.08h7.32l18.25,51.06H112.45Zm-13-8h10.86l-3.77-11.3-1.52-8h-.36l-1.52,8Z"
     id="path1633" />
  <path
     class="cls-6"
     d="M157.57,53.27H142.8V95.14h-9.93V53.27H118V44.44h39.54Z"
     id="path1635" />
  <path
     class="cls-6"
     d="M182.05,83.91H166.48l-3.84,11.23h-9.92L171,44.08h7.32l18.25,51.06H186.11Zm-13-8h10.87l-3.77-11.3-1.52-8h-.36l-1.52,8Z"
     id="path1637" />
  <path
     class="cls-6"
     d="M249.41,93.06a15.27,15.27,0,0,1-5.9,2.37,37.24,37.24,0,0,1-7.35.72,26.38,26.38,0,0,1-8.66-1.41,18.52,18.52,0,0,1-7.21-4.56,22.49,22.49,0,0,1-5-8.19,35.57,35.57,0,0,1-1.84-12.2,33,33,0,0,1,2.06-12.5,22.7,22.7,0,0,1,5.36-8.11,20,20,0,0,1,7.35-4.42,25.81,25.81,0,0,1,8.11-1.34,40.07,40.07,0,0,1,7.35.58,27.35,27.35,0,0,1,5,1.38l-2,8.4a14.37,14.37,0,0,0-3.95-1.16,36.26,36.26,0,0,0-5.54-.36,12.1,12.1,0,0,0-9.67,4.28q-3.66,4.29-3.66,13.28a27.41,27.41,0,0,0,.87,7.15,15.33,15.33,0,0,0,2.65,5.52A12.08,12.08,0,0,0,231.85,86,13.92,13.92,0,0,0,238,87.31a19.79,19.79,0,0,0,5.5-.65A16.15,16.15,0,0,0,247.38,85Z"
     id="path1639" />
  <path
     class="cls-6"
     d="M255.56,44.44h30.06v8.83H265.49V65.08h18.32v8.84H265.49V86.3H286v8.84H255.56Z"
     id="path1641" />
  <path
     class="cls-6"
     d="M306,68.7l-4-8h-.36l1.16,8V95.14h-9.42V44.08h7.24l19.2,27,3.84,7.75H324l-1.16-7.75V44.44h9.41V95.5H325Z"
     id="path1643" />
  <path
     class="cls-6"
     d="M377,53.27H362.18V95.14h-9.93V53.27H337.41V44.44H377Z"
     id="path1645" />
  <path
     class="cls-6"
     d="M382.09,44.44h30.06v8.83H392V65.08h18.32v8.84H392V86.3h20.49v8.84H382.09Z"
     id="path1647" />
  <path
     class="cls-6"
     d="M419.9,44.94c1.11-.19,2.31-.37,3.59-.54s2.55-.3,3.83-.4,2.53-.17,3.73-.21,2.32-.08,3.34-.08a37.12,37.12,0,0,1,7,.66,19,19,0,0,1,6.15,2.24A12,12,0,0,1,451.88,51a13.75,13.75,0,0,1,1.63,7,16.63,16.63,0,0,1-2.9,10.14,14.9,14.9,0,0,1-7.75,5.43l3.55,2.25L458,95.14H446.55L435,75.29l-5.22-.94V95.14H419.9Zm15.21,7.61c-1,0-2,0-3,.07a11.73,11.73,0,0,0-2.28.29v14.7H434a10.53,10.53,0,0,0,6.59-1.88q2.47-1.87,2.47-6.23a6.56,6.56,0,0,0-2-5.1A8.54,8.54,0,0,0,435.11,52.55Z"
     id="path1649" />
  <rect
     class="cls-3"
     y="666.98"
     width="547.69"
     height="103.87"
     rx="24"
     ry="24"
     id="rect1651" />
  <path
     class="cls-6"
     d="M183.41,271.31a200,200,0,0,1,24-4.35A240.73,240.73,0,0,1,234,265.19a213.27,213.27,0,0,1,26.73,1.33,134.33,134.33,0,0,1,24.45,5,111.64,111.64,0,0,1,13.18,4.84,50.58,50.58,0,0,1,9.15,5.24,27.44,27.44,0,0,1,6.19,6.17,36.55,36.55,0,0,1,4.08,7.59,29.23,29.23,0,0,1,1.77,6.74,48.44,48.44,0,0,1,.52,6.77,31.55,31.55,0,0,1-.58,6.3,19,19,0,0,1-1.76,5.22L391.22,302l27,8.31L304.36,338.73l-23.79-7.33a26.65,26.65,0,0,0,1.16-3.91c.36-1.59.75-3.39,1.14-5.41a55.26,55.26,0,0,0,.85-6.49,33.42,33.42,0,0,0-.24-7,64.93,64.93,0,0,0-1.73-9,19.48,19.48,0,0,0-3.62-7.09,24.23,24.23,0,0,0-7-5.64,58.42,58.42,0,0,0-11.32-4.62A70.27,70.27,0,0,0,248,279.81a132.35,132.35,0,0,0-14.59-.94,139.43,139.43,0,0,0-15.47.72,104.23,104.23,0,0,0-14.72,2.5,59.29,59.29,0,0,0-14,5,14.83,14.83,0,0,0-6.62,6.71l-35.83-3.64q3.36-4.94,11.48-9.76T183.41,271.31Z"
     id="path1653" />
  <path
     class="cls-6"
     d="M512,56.33A22.58,22.58,0,0,1,510.66,64a46.5,46.5,0,0,1-3.49,7.58,70,70,0,0,1-4.68,7.17c-1.71,2.31-3.38,4.42-5,6.35l-3.94,3v.37l5.35-1h14.26v8.17H481.87v-5q1.78-1.86,4-4.35T490.38,81q2.26-2.79,4.42-5.76a64.27,64.27,0,0,0,3.86-6,36.88,36.88,0,0,0,2.72-5.84,15.91,15.91,0,0,0,1-5.34,7.26,7.26,0,0,0-1.75-5c-1.16-1.31-3-2-5.53-2a13.13,13.13,0,0,0-4.87,1A13.86,13.86,0,0,0,486,54.7l-3.86-6.84A24.2,24.2,0,0,1,488.75,44a23.43,23.43,0,0,1,8.65-1.45,18.58,18.58,0,0,1,5.87.89,13.1,13.1,0,0,1,4.61,2.6,12,12,0,0,1,3,4.27A14.8,14.8,0,0,1,512,56.33Z"
     id="path1655" />
  <rect
     id="dc1-volume"
     ry="16.508821"
     rx="17.008755"
     height="84.698303"
     width="527.05304"
     y="678.03638"
     class="cls-3"
     style="fill:url(#linearGradient1026);fill-opacity:1;stroke-width:0.88583338"
     x="10.808712" />
</svg>
